<svg width="20" height="20" viewBox="0 0 20 20" fill="none" xmlns="http://www.w3.org/2000/svg">
<path d="M4.10414 8.20805C4.10376 8.01627 4.17056 7.8304 4.29293 7.68273C4.36183 7.59961 4.44646 7.53091 4.54196 7.48055C4.63746 7.43019 4.74196 7.39917 4.84947 7.38925C4.95697 7.37934 5.06538 7.39074 5.16848 7.42279C5.27158 7.45483 5.36734 7.50691 5.45028 7.57602L9.84988 11.2533L14.2577 7.70735C14.3417 7.63917 14.4383 7.58825 14.542 7.55753C14.6457 7.5268 14.7544 7.51688 14.862 7.52832C14.9695 7.53976 15.0737 7.57234 15.1687 7.6242C15.2636 7.67605 15.3473 7.74616 15.415 7.83048C15.4898 7.9154 15.5461 8.01486 15.5806 8.1226C15.6151 8.23034 15.6269 8.34405 15.6153 8.45658C15.6038 8.56911 15.5691 8.67803 15.5134 8.77651C15.4578 8.875 15.3824 8.96092 15.2919 9.02887L10.367 12.9934C10.2201 13.1142 10.0359 13.1802 9.84578 13.1802C9.65566 13.1802 9.47143 13.1142 9.32456 12.9934L4.39963 8.88933C4.3003 8.80699 4.22178 8.70239 4.17044 8.58402C4.11909 8.46565 4.09638 8.33685 4.10414 8.20805Z" fill="#232222"/>
</svg>
