<svg width="20" height="20" viewBox="0 0 20 20" fill="none" xmlns="http://www.w3.org/2000/svg">
<path d="M15.5956 11.4917C15.5959 11.6835 15.5292 11.8693 15.4068 12.017C15.3379 12.1001 15.2532 12.1688 15.1577 12.2192C15.0622 12.2695 14.9577 12.3006 14.8502 12.3105C14.7427 12.3204 14.6343 12.309 14.5312 12.2769C14.4281 12.2449 14.3324 12.1928 14.2494 12.1237L9.84982 8.44642L5.44202 11.9924C5.35806 12.0606 5.26145 12.1115 5.15775 12.1422C5.05404 12.1729 4.94529 12.1828 4.83774 12.1714C4.73019 12.16 4.62596 12.1274 4.53104 12.0755C4.43613 12.0237 4.35239 11.9536 4.28466 11.8692C4.20993 11.7843 4.15357 11.6849 4.1191 11.5771C4.08464 11.4694 4.07282 11.3557 4.08438 11.2431C4.09594 11.1306 4.13063 11.0217 4.18629 10.9232C4.24194 10.8247 4.31735 10.7388 4.40778 10.6708L9.33271 6.70628C9.47958 6.58556 9.66381 6.51956 9.85393 6.51956C10.044 6.51956 10.2283 6.58556 10.3751 6.70628L15.3001 10.8104C15.3994 10.8927 15.4779 10.9973 15.5293 11.1157C15.5806 11.2341 15.6033 11.3629 15.5956 11.4917Z" fill="#232222"/>
</svg>
