<svg width="30" height="30" viewBox="0 0 30 30" fill="none" xmlns="http://www.w3.org/2000/svg">
<path d="M25.479 8.46069C25.2702 8.09883 24.9711 7.79729 24.611 7.58546C24.2509 7.37363 23.842 7.25875 23.4243 7.25202H7.9533L7.25228 4.52043C7.18145 4.25674 7.02343 4.02481 6.80395 3.8624C6.58448 3.69998 6.31648 3.61667 6.04361 3.62601H3.62627C3.30571 3.62601 2.99828 3.75336 2.77161 3.98002C2.54494 4.20669 2.4176 4.51412 2.4176 4.83468C2.4176 5.15524 2.54494 5.46267 2.77161 5.68934C2.99828 5.91601 3.30571 6.04335 3.62627 6.04335H5.12502L8.46094 18.4443C8.53177 18.708 8.68979 18.9399 8.90927 19.1023C9.12874 19.2647 9.39674 19.348 9.66961 19.3387H20.5476C20.7708 19.338 20.9895 19.2756 21.1794 19.1582C21.3692 19.0409 21.5229 18.8733 21.6233 18.6739L25.5878 10.7451C25.7596 10.3849 25.8396 9.9878 25.8206 9.5892C25.8016 9.1906 25.6843 8.8029 25.479 8.46069Z" fill="#FFECD5"/>
<path d="M9.06508 25.382C10.0664 25.382 10.8781 24.5703 10.8781 23.569C10.8781 22.5678 10.0664 21.756 9.06508 21.756C8.06378 21.756 7.25208 22.5678 7.25208 23.569C7.25208 24.5703 8.06378 25.382 9.06508 25.382Z" fill="#FFECD5"/>
<path d="M21.1519 25.382C22.1532 25.382 22.9649 24.5703 22.9649 23.569C22.9649 22.5678 22.1532 21.756 21.1519 21.756C20.1506 21.756 19.3389 22.5678 19.3389 23.569C19.3389 24.5703 20.1506 25.382 21.1519 25.382Z" fill="#FFECD5"/>
</svg>
