<svg width="234" height="30" viewBox="0 0 234 30" fill="none" xmlns="http://www.w3.org/2000/svg">
<path d="M25.4789 8.46069C25.27 8.09883 24.971 7.79729 24.6109 7.58546C24.2507 7.37363 23.8419 7.25875 23.4241 7.25202H7.95318L7.25215 4.52043C7.18133 4.25674 7.02331 4.02481 6.80383 3.8624C6.58436 3.69998 6.31636 3.61667 6.04349 3.62601H3.62615C3.30559 3.62601 2.99816 3.75336 2.77149 3.98002C2.54482 4.20669 2.41748 4.51412 2.41748 4.83468C2.41748 5.15524 2.54482 5.46267 2.77149 5.68934C2.99816 5.91601 3.30559 6.04335 3.62615 6.04335H5.1249L8.46082 18.4443C8.53165 18.708 8.68967 18.9399 8.90915 19.1023C9.12862 19.2647 9.39662 19.348 9.66949 19.3387H20.5475C20.7707 19.338 20.9894 19.2756 21.1792 19.1582C21.3691 19.0409 21.5228 18.8733 21.6232 18.6739L25.5877 10.7451C25.7595 10.3849 25.8395 9.9878 25.8205 9.5892C25.8015 9.1906 25.6841 8.8029 25.4789 8.46069Z" fill="#FFECD5"/>
<path d="M9.06496 25.382C10.0662 25.382 10.878 24.5703 10.878 23.569C10.878 22.5678 10.0662 21.756 9.06496 21.756C8.06366 21.756 7.25195 22.5678 7.25195 23.569C7.25195 24.5703 8.06366 25.382 9.06496 25.382Z" fill="#FFECD5"/>
<path d="M21.1516 25.382C22.1529 25.382 22.9646 24.5703 22.9646 23.569C22.9646 22.5678 22.1529 21.756 21.1516 21.756C20.1503 21.756 19.3386 22.5678 19.3386 23.569C19.3386 24.5703 20.1503 25.382 21.1516 25.382Z" fill="#FFECD5"/>
<path d="M233.061 8.83538C232.853 8.47353 232.553 8.17198 232.193 7.96015C231.833 7.74832 231.424 7.63344 231.007 7.62671H215.536L214.835 4.89512C214.764 4.63144 214.606 4.3995 214.386 4.23709C214.167 4.07468 213.899 3.99136 213.626 4.00071H211.209C210.888 4.00071 210.581 4.12805 210.354 4.35472C210.127 4.58139 210 4.88882 210 5.20938C210 5.52994 210.127 5.83737 210.354 6.06403C210.581 6.2907 210.888 6.41805 211.209 6.41805H212.707L216.043 18.819C216.114 19.0827 216.272 19.3146 216.492 19.477C216.711 19.6394 216.979 19.7227 217.252 19.7134H228.13C228.353 19.7127 228.572 19.6503 228.762 19.5329C228.952 19.4156 229.105 19.248 229.206 19.0486L233.17 11.1198C233.342 10.7596 233.422 10.3625 233.403 9.9639C233.384 9.56529 233.267 9.17759 233.061 8.83538Z" fill="#FFECD5"/>
<path d="M216.647 25.7567C217.649 25.7567 218.46 24.945 218.46 23.9437C218.46 22.9424 217.649 22.1307 216.647 22.1307C215.646 22.1307 214.834 22.9424 214.834 23.9437C214.834 24.945 215.646 25.7567 216.647 25.7567Z" fill="#FFECD5"/>
<path d="M228.734 25.7567C229.735 25.7567 230.547 24.945 230.547 23.9437C230.547 22.9424 229.735 22.1307 228.734 22.1307C227.733 22.1307 226.921 22.9424 226.921 23.9437C226.921 24.945 227.733 25.7567 228.734 25.7567Z" fill="#FFECD5"/>
</svg>
