<svg width="20" height="20" viewBox="0 0 20 20" fill="none" xmlns="http://www.w3.org/2000/svg">
<path d="M4.10414 8.20804C4.10376 8.01625 4.17056 7.83039 4.29293 7.68271C4.36183 7.5996 4.44646 7.53089 4.54196 7.48053C4.63746 7.43018 4.74196 7.39915 4.84947 7.38924C4.95697 7.37933 5.06538 7.39072 5.16848 7.42277C5.27158 7.45482 5.36734 7.50689 5.45028 7.57601L9.84988 11.2533L14.2577 7.70734C14.3417 7.63916 14.4383 7.58824 14.542 7.55751C14.6457 7.52679 14.7544 7.51686 14.862 7.5283C14.9695 7.53975 15.0737 7.57233 15.1687 7.62418C15.2636 7.67604 15.3473 7.74614 15.415 7.83046C15.4898 7.91539 15.5461 8.01484 15.5806 8.12259C15.6151 8.23033 15.6269 8.34403 15.6153 8.45656C15.6038 8.56909 15.5691 8.67802 15.5134 8.7765C15.4578 8.87498 15.3824 8.9609 15.2919 9.02886L10.367 12.9934C10.2201 13.1142 10.0359 13.1802 9.84578 13.1802C9.65566 13.1802 9.47143 13.1142 9.32456 12.9934L4.39963 8.88932C4.3003 8.80698 4.22178 8.70238 4.17044 8.58401C4.11909 8.46564 4.09638 8.33683 4.10414 8.20804Z" fill="#232222"/>
</svg>
