<svg width="24" height="23" viewBox="0 0 24 23" fill="none" xmlns="http://www.w3.org/2000/svg">
<path d="M23.479 5.46069C23.2702 5.09883 22.9711 4.79729 22.611 4.58546C22.2509 4.37363 21.842 4.25875 21.4243 4.25202H5.9533L5.25228 1.52043C5.18145 1.25674 5.02343 1.02481 4.80395 0.862396C4.58448 0.699984 4.31648 0.616667 4.04361 0.626014H1.62627C1.30571 0.626014 0.998283 0.753355 0.771613 0.980025C0.544944 1.20669 0.417603 1.51412 0.417603 1.83468C0.417603 2.15524 0.544944 2.46267 0.771613 2.68934C0.998283 2.91601 1.30571 3.04335 1.62627 3.04335H3.12502L6.46094 15.4443C6.53177 15.708 6.68979 15.9399 6.90927 16.1023C7.12874 16.2647 7.39674 16.348 7.66961 16.3387H18.5476C18.7708 16.338 18.9895 16.2756 19.1794 16.1582C19.3692 16.0409 19.5229 15.8733 19.6233 15.6739L23.5878 7.74507C23.7596 7.38491 23.8396 6.9878 23.8206 6.5892C23.8016 6.1906 23.6843 5.8029 23.479 5.46069Z" fill="#FFECD5"/>
<path d="M7.06508 22.3821C8.06637 22.3821 8.87808 21.5704 8.87808 20.5691C8.87808 19.5678 8.06637 18.7561 7.06508 18.7561C6.06378 18.7561 5.25208 19.5678 5.25208 20.5691C5.25208 21.5704 6.06378 22.3821 7.06508 22.3821Z" fill="#FFECD5"/>
<path d="M19.1519 22.3821C20.1532 22.3821 20.9649 21.5704 20.9649 20.5691C20.9649 19.5678 20.1532 18.7561 19.1519 18.7561C18.1506 18.7561 17.3389 19.5678 17.3389 20.5691C17.3389 21.5704 18.1506 22.3821 19.1519 22.3821Z" fill="#FFECD5"/>
</svg>
