<svg width="18" height="17" viewBox="0 0 18 17" fill="none" xmlns="http://www.w3.org/2000/svg">
<path d="M13.081 10.1878C12.869 10.0799 11.8362 9.57366 11.6432 9.50141C11.4502 9.43234 11.3101 9.39622 11.1694 9.60925C11.032 9.81697 10.6269 10.2924 10.5032 10.4311C10.3794 10.5697 10.2578 10.5804 10.0489 10.4863C9.83689 10.3785 9.15951 10.157 8.35522 9.43234C7.72701 8.87081 7.30874 8.17912 7.18447 7.96609C7.06074 7.75572 7.17073 7.63672 7.27543 7.53153C7.37167 7.43484 7.48747 7.28822 7.59482 7.16072C7.69687 7.03322 7.72966 6.94769 7.80422 6.80956C7.87296 6.66028 7.83753 6.54394 7.78518 6.43875C7.73283 6.33356 7.31138 5.29072 7.1353 4.87528C6.96714 4.46303 6.79105 4.51562 6.6615 4.51562C6.54041 4.50447 6.39975 4.50447 6.25962 4.50447C6.11949 4.50447 5.89052 4.55706 5.69752 4.75894C5.50451 4.97197 4.95932 5.48091 4.95932 6.51047C4.95932 7.54269 5.71391 8.54144 5.81861 8.69072C5.92595 8.82884 7.30292 10.9538 9.41544 11.8671C9.91938 12.0801 10.3107 12.2076 10.6163 12.3128C11.1203 12.4732 11.5803 12.4509 11.9436 12.3983C12.3455 12.3319 13.1884 11.8862 13.365 11.3884C13.5442 10.8874 13.5442 10.4725 13.4919 10.3785C13.4395 10.2818 13.3021 10.2292 13.09 10.1352L13.081 10.1878ZM9.24993 15.4062H9.23883C7.98824 15.4062 6.75192 15.0657 5.67213 14.4293L5.41884 14.2773L2.77489 14.969L3.48558 12.3845L3.31479 12.1189C2.61784 11.0038 2.2461 9.71709 2.2461 8.39481C2.2461 4.53794 5.3887 1.39187 9.25522 1.39187C11.1282 1.39187 12.8854 2.125 14.2073 3.45312C15.5293 4.77009 16.259 6.53544 16.259 8.40597C16.2538 12.2602 13.1138 15.4062 9.25257 15.4062H9.24993ZM15.2126 2.44322C13.604 0.882406 11.4888 0 9.23883 0C4.59816 0 0.819423 3.77984 0.816779 8.42509C0.816779 9.90834 1.20227 11.3555 1.94046 12.6363L0.745392 17L5.21261 15.8297C6.44364 16.4964 7.82907 16.8534 9.23935 16.856H9.242C13.8853 16.856 17.664 13.0762 17.6667 8.42775C17.6667 6.17844 16.7937 4.06141 15.202 2.47031L15.2126 2.44322Z" fill="white"/>
</svg>
