<svg width="17" height="17" viewBox="0 0 17 17" fill="none" xmlns="http://www.w3.org/2000/svg">
<path d="M12.393 10.1878C12.18 10.0799 11.1424 9.57366 10.9485 9.50141C10.7546 9.43234 10.6138 9.39622 10.4725 9.60925C10.3344 9.81697 9.92747 10.2924 9.80316 10.4311C9.67884 10.5697 9.55666 10.5804 9.34681 10.4863C9.13378 10.3785 8.45325 10.157 7.64522 9.43234C7.01409 8.87081 6.59387 8.17912 6.46903 7.96609C6.34472 7.75572 6.45522 7.63672 6.56041 7.53153C6.65709 7.43484 6.77344 7.28822 6.88128 7.16072C6.98381 7.03322 7.01675 6.94769 7.09166 6.80956C7.16072 6.66028 7.12512 6.54394 7.07253 6.43875C7.01994 6.33356 6.59653 5.29072 6.41962 4.87528C6.25069 4.46303 6.07378 4.51562 5.94362 4.51562C5.82197 4.50447 5.68066 4.50447 5.53988 4.50447C5.39909 4.50447 5.16906 4.55706 4.97516 4.75894C4.78125 4.97197 4.23353 5.48091 4.23353 6.51047C4.23353 7.54269 4.99162 8.54144 5.09681 8.69072C5.20466 8.82884 6.58803 10.9538 8.71037 11.8671C9.21666 12.0801 9.60978 12.2076 9.91684 12.3128C10.4231 12.4732 10.8853 12.4509 11.2503 12.3983C11.654 12.3319 12.5008 11.8862 12.6783 11.3884C12.8584 10.8874 12.8584 10.4725 12.8058 10.3785C12.7532 10.2818 12.6151 10.2292 12.402 10.1352L12.393 10.1878ZM8.54409 15.4062H8.53294C7.27653 15.4062 6.03447 15.0657 4.94966 14.4293L4.69519 14.2773L2.03894 14.969L2.75294 12.3845L2.58134 12.1189C1.88116 11.0038 1.50769 9.71709 1.50769 8.39481C1.50769 4.53794 4.66491 1.39187 8.54941 1.39187C10.4311 1.39187 12.1964 2.125 13.5246 3.45312C14.8527 4.77009 15.5858 6.53544 15.5858 8.40597C15.5805 12.2602 12.4259 15.4062 8.54675 15.4062H8.54409ZM14.5345 2.44322C12.9184 0.882406 10.7934 0 8.53294 0C3.87069 0 0.074375 3.77984 0.0717188 8.42509C0.0717188 9.90834 0.459 11.3555 1.20062 12.6363L0 17L4.488 15.8297C5.72475 16.4964 7.11662 16.8534 8.53347 16.856H8.53613C13.201 16.856 16.9973 13.0762 17 8.42775C17 6.17844 16.1229 4.06141 14.5238 2.47031L14.5345 2.44322Z" fill="white"/>
</svg>
