<svg width="24" height="13" viewBox="0 0 24 13" fill="none" xmlns="http://www.w3.org/2000/svg">
<path d="M0.00309372 1.8448C0.00231361 1.41451 0.141504 0.997519 0.396507 0.666201C0.5401 0.479728 0.716455 0.325586 0.915466 0.212603C1.11448 0.0996201 1.33223 0.0300161 1.55627 0.00777767C1.7803 -0.0144607 2.00621 0.0111038 2.22106 0.0830064C2.4359 0.154909 2.63546 0.271736 2.8083 0.426798L11.9765 8.67697L21.1619 0.721449C21.3368 0.568478 21.5382 0.454243 21.7543 0.385311C21.9704 0.316378 22.197 0.294106 22.4211 0.319776C22.6452 0.345446 22.8624 0.41855 23.0602 0.534888C23.258 0.651226 23.4325 0.808505 23.5737 0.997681C23.7294 1.18822 23.8469 1.41135 23.9187 1.65308C23.9905 1.89481 24.0151 2.14991 23.991 2.40237C23.967 2.65484 23.8946 2.89922 23.7787 3.12017C23.6627 3.34112 23.5056 3.53388 23.3171 3.68635L13.0542 12.5811C12.7481 12.8519 12.3642 13 11.968 13C11.5718 13 11.1879 12.8519 10.8818 12.5811L0.618872 3.37329C0.411873 3.18855 0.248241 2.95387 0.141251 2.6883C0.0342617 2.42273 -0.0130711 2.13375 0.00309372 1.8448Z" fill="#232222"/>
</svg>
