<svg width="19" height="18" viewBox="0 0 19 18" fill="none" xmlns="http://www.w3.org/2000/svg">
<path d="M9.59925 4.38405C7.05714 4.38405 5.00667 6.44406 5.00667 8.99799C5.00667 11.5519 7.05714 13.6119 9.59925 13.6119C12.1414 13.6119 14.1918 11.5519 14.1918 8.99799C14.1918 6.44406 12.1414 4.38405 9.59925 4.38405ZM9.59925 11.9977C7.95647 11.9977 6.61347 10.6524 6.61347 8.99799C6.61347 7.34356 7.95247 5.99833 9.59925 5.99833C11.246 5.99833 12.585 7.34356 12.585 8.99799C12.585 10.6524 11.242 11.9977 9.59925 11.9977ZM15.4509 4.19531C15.4509 4.79364 14.9713 5.2715 14.3797 5.2715C13.7841 5.2715 13.3085 4.78963 13.3085 4.19531C13.3085 3.601 13.7881 3.11913 14.3797 3.11913C14.9713 3.11913 15.4509 3.601 15.4509 4.19531ZM18.4926 5.28756C18.4247 3.84596 18.0969 2.56899 17.0457 1.5169C15.9985 0.464807 14.7274 0.135527 13.2925 0.063246C11.8136 -0.021082 7.3809 -0.021082 5.902 0.063246C4.47106 0.131511 3.20001 0.460792 2.14879 1.51288C1.09757 2.56497 0.773816 3.84194 0.701869 5.28355C0.617932 6.76932 0.617932 11.2226 0.701869 12.7084C0.769819 14.15 1.09757 15.427 2.14879 16.4791C3.20001 17.5312 4.46707 17.8605 5.902 17.9327C7.3809 18.0171 11.8136 18.0171 13.2925 17.9327C14.7274 17.8645 15.9985 17.5352 17.0457 16.4791C18.0929 15.427 18.4207 14.15 18.4926 12.7084C18.5766 11.2226 18.5766 6.77334 18.4926 5.28756ZM16.5821 14.3026C16.2703 15.0897 15.6667 15.696 14.8793 16.0133C13.7002 16.4831 10.9023 16.3747 9.59925 16.3747C8.29622 16.3747 5.4943 16.4791 4.31918 16.0133C3.53576 15.7001 2.93221 15.0937 2.61644 14.3026C2.14879 13.118 2.25671 10.3071 2.25671 8.99799C2.25671 7.6889 2.15279 4.87395 2.61644 3.69336C2.92821 2.9063 3.53176 2.29994 4.31918 1.98271C5.4983 1.51288 8.29622 1.6213 9.59925 1.6213C10.9023 1.6213 13.7042 1.5169 14.8793 1.98271C15.6627 2.29593 16.2663 2.90229 16.5821 3.69336C17.0497 4.87797 16.9418 7.6889 16.9418 8.99799C16.9418 10.3071 17.0497 13.122 16.5821 14.3026Z" fill="#FCF7F7"/>
</svg>
